<svg width="24" height="24" viewBox="0 0 24 24" fill="none" xmlns="http://www.w3.org/2000/svg">
<g clip-path="url(#clip0_1_635)">
<path d="M12 14.0999C10.875 14.0999 9.90002 13.1999 9.90002 11.9999C9.90002 10.8749 10.8 9.8999 12 9.8999C13.125 9.8999 14.1 10.7999 14.1 11.9999C14.1 13.1249 13.125 14.0999 12 14.0999Z" fill="black"/>
<path fill-rule="evenodd" clip-rule="evenodd" d="M14.55 6.8999H9.45002C8.85002 6.9749 8.55002 7.0499 8.32502 7.1249C8.02502 7.1999 7.80002 7.3499 7.57502 7.5749C7.39698 7.75294 7.31286 7.93098 7.21118 8.14618C7.18439 8.20289 7.1563 8.26234 7.12502 8.3249C7.11342 8.35971 7.10002 8.39631 7.08566 8.43554C7.0072 8.6499 6.90002 8.94272 6.90002 9.4499V14.5499C6.97502 15.1499 7.05002 15.4499 7.12502 15.6749C7.20002 15.9749 7.35002 16.1999 7.57502 16.4249C7.75306 16.6029 7.9311 16.6871 8.1463 16.7887C8.20306 16.8156 8.26241 16.8436 8.32502 16.8749C8.35983 16.8865 8.39643 16.8999 8.43566 16.9143C8.65002 16.9927 8.94284 17.0999 9.45002 17.0999H14.55C15.15 17.0249 15.45 16.9499 15.675 16.8749C15.975 16.7999 16.2 16.6499 16.425 16.4249C16.603 16.2469 16.6872 16.0688 16.7888 15.8536C16.8156 15.7969 16.8437 15.7375 16.875 15.6749C16.8866 15.6401 16.9 15.6035 16.9144 15.5643C16.9928 15.3499 17.1 15.0571 17.1 14.5499V9.4499C17.025 8.8499 16.95 8.5499 16.875 8.3249C16.8 8.0249 16.65 7.7999 16.425 7.5749C16.247 7.39686 16.0689 7.31274 15.8537 7.21106C15.797 7.18429 15.7375 7.15615 15.675 7.1249C15.6402 7.1133 15.6036 7.0999 15.5644 7.08554C15.35 7.00708 15.0572 6.8999 14.55 6.8999ZM12 8.7749C10.2 8.7749 8.77502 10.1999 8.77502 11.9999C8.77502 13.7999 10.2 15.2249 12 15.2249C13.8 15.2249 15.225 13.7999 15.225 11.9999C15.225 10.1999 13.8 8.7749 12 8.7749ZM16.05 8.6999C16.05 9.11411 15.7142 9.4499 15.3 9.4499C14.8858 9.4499 14.55 9.11411 14.55 8.6999C14.55 8.28568 14.8858 7.9499 15.3 7.9499C15.7142 7.9499 16.05 8.28568 16.05 8.6999Z" fill="black"/>
<path fill-rule="evenodd" clip-rule="evenodd" d="M0 3.75C0 1.67893 1.67893 0 3.75 0H20.25C22.3211 0 24 1.67893 24 3.75V20.25C24 22.3211 22.3211 24 20.25 24H3.75C1.67893 24 0 22.3211 0 20.25V3.75ZM9.45 5.775H14.55C15.225 5.85 15.675 5.925 16.05 6.075C16.5 6.3 16.8 6.45 17.175 6.825C17.55 7.2 17.775 7.575 17.925 7.95C18.075 8.325 18.225 8.775 18.225 9.45V14.55C18.15 15.225 18.075 15.675 17.925 16.05C17.7 16.5 17.55 16.8 17.175 17.175C16.8 17.55 16.425 17.775 16.05 17.925C15.675 18.075 15.225 18.225 14.55 18.225H9.45C8.775 18.15 8.325 18.075 7.95 17.925C7.5 17.7 7.2 17.55 6.825 17.175C6.45 16.8 6.225 16.425 6.075 16.05C5.925 15.675 5.775 15.225 5.775 14.55V9.45C5.85 8.775 5.925 8.325 6.075 7.95C6.3 7.5 6.45 7.2 6.825 6.825C7.2 6.45 7.575 6.225 7.95 6.075C8.325 5.925 8.775 5.775 9.45 5.775Z" fill="black"/>
</g>
<defs>
<clipPath id="clip0_1_635">
<rect width="24" height="24" fill="white"/>
</clipPath>
</defs>
</svg>
